<mxfile host="app.diagrams.net" modified="2022-10-26T14:26:54.295Z" agent="5.0 (X11)" etag="f2EOMap7UxRJQhYTVEQm" version="20.5.1" type="github" pages="2">
  <diagram id="prtHgNgQTEPvFCAcTncT" name="Page-1">
    <mxGraphModel dx="3088" dy="1327" grid="1" gridSize="10" guides="1" tooltips="1" connect="1" arrows="1" fold="1" page="1" pageScale="1" pageWidth="827" pageHeight="1169" math="0" shadow="0">
      <root>
        <mxCell id="0" />
        <mxCell id="1" parent="0" />
        <mxCell id="-uMLt3uFbst9-DU3asHZ-1" value="&lt;div&gt;&lt;br&gt;&lt;/div&gt;" style="text;html=1;align=center;verticalAlign=middle;resizable=0;points=[];autosize=1;strokeColor=none;fillColor=none;" parent="1" vertex="1">
          <mxGeometry x="330" y="183" width="20" height="30" as="geometry" />
        </mxCell>
        <mxCell id="b1TLpH0DYaXF8-X6dO7h-69" style="edgeStyle=orthogonalEdgeStyle;curved=1;rounded=0;orthogonalLoop=1;jettySize=auto;html=1;exitX=0.5;exitY=1;exitDx=0;exitDy=0;entryX=0.5;entryY=0;entryDx=0;entryDy=0;strokeWidth=3;fontSize=16;" parent="1" source="-uMLt3uFbst9-DU3asHZ-4" target="-uMLt3uFbst9-DU3asHZ-7" edge="1">
          <mxGeometry relative="1" as="geometry" />
        </mxCell>
        <mxCell id="-uMLt3uFbst9-DU3asHZ-4" value="&lt;font style=&quot;font-size: 23px;&quot;&gt;Study Any Metabolism&lt;br&gt;&lt;/font&gt;" style="text;html=1;strokeColor=none;fillColor=none;align=center;verticalAlign=middle;whiteSpace=wrap;rounded=0;" parent="1" vertex="1">
          <mxGeometry x="210" y="65" width="214.75" height="118" as="geometry" />
        </mxCell>
        <mxCell id="b1TLpH0DYaXF8-X6dO7h-96" style="edgeStyle=orthogonalEdgeStyle;curved=1;rounded=0;orthogonalLoop=1;jettySize=auto;html=1;strokeWidth=3;fontSize=23;fillColor=#6d8764;strokeColor=#3A5431;entryX=0.25;entryY=0;entryDx=0;entryDy=0;exitX=0.5;exitY=1;exitDx=0;exitDy=0;" parent="1" source="-uMLt3uFbst9-DU3asHZ-7" target="b1TLpH0DYaXF8-X6dO7h-84" edge="1">
          <mxGeometry relative="1" as="geometry">
            <mxPoint x="340" y="290" as="sourcePoint" />
            <Array as="points">
              <mxPoint x="409" y="330" />
              <mxPoint x="430" y="330" />
            </Array>
          </mxGeometry>
        </mxCell>
        <mxCell id="b1TLpH0DYaXF8-X6dO7h-103" style="edgeStyle=orthogonalEdgeStyle;curved=1;rounded=0;orthogonalLoop=1;jettySize=auto;html=1;exitX=0.75;exitY=1;exitDx=0;exitDy=0;strokeWidth=3;fontSize=23;fillColor=#6d8764;strokeColor=#3A5431;" parent="1" source="-uMLt3uFbst9-DU3asHZ-7" target="b1TLpH0DYaXF8-X6dO7h-85" edge="1">
          <mxGeometry relative="1" as="geometry" />
        </mxCell>
        <mxCell id="sFF2S7-PHeseh_3p-4S--3" style="edgeStyle=orthogonalEdgeStyle;curved=1;orthogonalLoop=1;jettySize=auto;html=1;exitX=0.25;exitY=1;exitDx=0;exitDy=0;strokeWidth=3;fillColor=#6d8764;strokeColor=#3A5431;" parent="1" source="-uMLt3uFbst9-DU3asHZ-7" target="b1TLpH0DYaXF8-X6dO7h-87" edge="1">
          <mxGeometry relative="1" as="geometry" />
        </mxCell>
        <mxCell id="-uMLt3uFbst9-DU3asHZ-7" value="&lt;div&gt;You run:&lt;/div&gt;&lt;div style=&quot;font-size: 23px;&quot;&gt;dram2&lt;br&gt;&lt;/div&gt;" style="rounded=0;whiteSpace=wrap;html=1;fillColor=#6d8764;fontColor=#ffffff;strokeColor=#3A5431;" parent="1" vertex="1">
          <mxGeometry x="350" y="228" width="117" height="42" as="geometry" />
        </mxCell>
        <mxCell id="b1TLpH0DYaXF8-X6dO7h-2" value="&lt;div&gt;&lt;b&gt;/&amp;gt; DRAM-setup.py version&lt;/b&gt;&lt;/div&gt;" style="rounded=1;whiteSpace=wrap;html=1;fillColor=#647687;fontColor=#ffffff;strokeColor=#314354;" parent="1" vertex="1">
          <mxGeometry x="-80" y="348" width="160" height="30" as="geometry" />
        </mxCell>
        <mxCell id="b1TLpH0DYaXF8-X6dO7h-52" style="edgeStyle=orthogonalEdgeStyle;curved=1;rounded=0;orthogonalLoop=1;jettySize=auto;html=1;exitX=0.5;exitY=1;exitDx=0;exitDy=0;entryX=0.5;entryY=0;entryDx=0;entryDy=0;strokeWidth=3;fontSize=16;fillColor=#647687;strokeColor=#314354;" parent="1" source="b1TLpH0DYaXF8-X6dO7h-13" target="b1TLpH0DYaXF8-X6dO7h-2" edge="1">
          <mxGeometry relative="1" as="geometry" />
        </mxCell>
        <mxCell id="b1TLpH0DYaXF8-X6dO7h-13" value="&lt;font style=&quot;font-size: 16px;&quot;&gt;print DRAM version&lt;/font&gt;" style="text;html=1;strokeColor=none;fillColor=none;align=center;verticalAlign=middle;whiteSpace=wrap;rounded=0;" parent="1" vertex="1">
          <mxGeometry x="-51" y="280" width="97" height="52" as="geometry" />
        </mxCell>
        <mxCell id="b1TLpH0DYaXF8-X6dO7h-73" value="&lt;div align=&quot;left&quot;&gt;&lt;b&gt;/&amp;gt; dram2 annotate&lt;/b&gt;&lt;br&gt;&lt;/div&gt;&lt;ul&gt;&lt;li&gt; --called for called genes&lt;/li&gt;&lt;li&gt;--add_to to add to annotations in directory &lt;/li&gt;&lt;/ul&gt;" style="rounded=1;whiteSpace=wrap;html=1;fillColor=#6d8764;fontColor=#ffffff;strokeColor=#3A5431;align=left;" parent="1" vertex="1">
          <mxGeometry x="500" y="719" width="240" height="131" as="geometry" />
        </mxCell>
        <mxCell id="b1TLpH0DYaXF8-X6dO7h-75" value="&lt;div&gt;&lt;b&gt;/&amp;gt; DRAM.py distill&lt;/b&gt;&lt;/div&gt;&lt;div&gt;&lt;b&gt;--use viral for viral&lt;/b&gt;&lt;/div&gt;&lt;div&gt;&lt;b&gt;--use methyl for methyl&lt;br&gt;&lt;/b&gt;&lt;/div&gt;" style="rounded=1;whiteSpace=wrap;html=1;fillColor=#6d8764;fontColor=#ffffff;strokeColor=#3A5431;" parent="1" vertex="1">
          <mxGeometry x="747.75" y="738" width="182.25" height="72" as="geometry" />
        </mxCell>
        <mxCell id="b1TLpH0DYaXF8-X6dO7h-76" value="&lt;b&gt;/&amp;gt; dram2 strain&lt;br&gt;&lt;/b&gt;" style="rounded=1;whiteSpace=wrap;html=1;fillColor=#6d8764;fontColor=#ffffff;strokeColor=#3A5431;" parent="1" vertex="1">
          <mxGeometry x="350" y="730" width="125" height="28" as="geometry" />
        </mxCell>
        <mxCell id="b1TLpH0DYaXF8-X6dO7h-77" value="&lt;b&gt;/&amp;gt; dram2 neighboor&lt;/b&gt;" style="rounded=1;whiteSpace=wrap;html=1;fillColor=#6d8764;fontColor=#ffffff;strokeColor=#3A5431;" parent="1" vertex="1">
          <mxGeometry x="12.5" y="730" width="175" height="28" as="geometry" />
        </mxCell>
        <mxCell id="b1TLpH0DYaXF8-X6dO7h-78" value="&lt;b&gt;/&amp;gt; dram2 merge&lt;/b&gt;" style="rounded=1;whiteSpace=wrap;html=1;fillColor=#6d8764;fontColor=#ffffff;strokeColor=#3A5431;" parent="1" vertex="1">
          <mxGeometry x="187.5" y="686" width="195" height="28" as="geometry" />
        </mxCell>
        <mxCell id="sFF2S7-PHeseh_3p-4S--4" style="edgeStyle=orthogonalEdgeStyle;curved=1;orthogonalLoop=1;jettySize=auto;html=1;exitX=0.5;exitY=1;exitDx=0;exitDy=0;strokeWidth=3;" parent="1" source="b1TLpH0DYaXF8-X6dO7h-80" target="b1TLpH0DYaXF8-X6dO7h-73" edge="1">
          <mxGeometry relative="1" as="geometry" />
        </mxCell>
        <mxCell id="b1TLpH0DYaXF8-X6dO7h-80" value="&lt;div align=&quot;center&quot;&gt;Annotate genomes, contigs, bins, and MAGs&lt;/div&gt;" style="text;whiteSpace=wrap;html=1;fontSize=16;align=center;" parent="1" vertex="1">
          <mxGeometry x="480.25" y="578" width="164" height="66" as="geometry" />
        </mxCell>
        <mxCell id="b1TLpH0DYaXF8-X6dO7h-100" style="edgeStyle=orthogonalEdgeStyle;curved=1;rounded=0;orthogonalLoop=1;jettySize=auto;html=1;exitX=0.75;exitY=1;exitDx=0;exitDy=0;strokeWidth=3;fontSize=23;fillColor=#6d8764;strokeColor=#3A5431;" parent="1" source="b1TLpH0DYaXF8-X6dO7h-84" edge="1">
          <mxGeometry relative="1" as="geometry">
            <mxPoint x="599.75" y="579.9999999999995" as="targetPoint" />
            <Array as="points">
              <mxPoint x="483.75" y="428" />
              <mxPoint x="539.75" y="428" />
              <mxPoint x="539.75" y="494" />
              <mxPoint x="599.75" y="494" />
            </Array>
          </mxGeometry>
        </mxCell>
        <mxCell id="b1TLpH0DYaXF8-X6dO7h-84" value="&lt;font style=&quot;font-size: 23px;&quot;&gt;&lt;b&gt;Annotate&lt;/b&gt;&lt;/font&gt;" style="text;html=1;strokeColor=none;fillColor=none;align=center;verticalAlign=middle;whiteSpace=wrap;rounded=0;fontSize=16;" parent="1" vertex="1">
          <mxGeometry x="403.75" y="375" width="106" height="33" as="geometry" />
        </mxCell>
        <mxCell id="b1TLpH0DYaXF8-X6dO7h-104" style="edgeStyle=orthogonalEdgeStyle;curved=1;rounded=0;orthogonalLoop=1;jettySize=auto;html=1;exitX=0.5;exitY=1;exitDx=0;exitDy=0;strokeWidth=3;fontSize=23;fillColor=#6d8764;strokeColor=#3A5431;" parent="1" source="b1TLpH0DYaXF8-X6dO7h-85" target="b1TLpH0DYaXF8-X6dO7h-88" edge="1">
          <mxGeometry relative="1" as="geometry">
            <Array as="points">
              <mxPoint x="692.75" y="498" />
              <mxPoint x="796.75" y="498" />
            </Array>
          </mxGeometry>
        </mxCell>
        <mxCell id="b1TLpH0DYaXF8-X6dO7h-108" style="edgeStyle=orthogonalEdgeStyle;curved=1;rounded=0;orthogonalLoop=1;jettySize=auto;html=1;exitX=0.75;exitY=1;exitDx=0;exitDy=0;strokeWidth=3;fontSize=23;fillColor=#6d8764;strokeColor=#3A5431;" parent="1" source="b1TLpH0DYaXF8-X6dO7h-87" target="b1TLpH0DYaXF8-X6dO7h-93" edge="1">
          <mxGeometry relative="1" as="geometry" />
        </mxCell>
        <mxCell id="b1TLpH0DYaXF8-X6dO7h-85" value="&lt;div&gt;&lt;font style=&quot;font-size: 23px;&quot;&gt;&lt;b&gt;Understand&lt;/b&gt;&lt;/font&gt;&lt;/div&gt;You must first annotate" style="text;html=1;strokeColor=none;fillColor=none;align=center;verticalAlign=middle;whiteSpace=wrap;rounded=0;fontSize=16;" parent="1" vertex="1">
          <mxGeometry x="610" y="378" width="165" height="62" as="geometry" />
        </mxCell>
        <mxCell id="b1TLpH0DYaXF8-X6dO7h-101" style="edgeStyle=orthogonalEdgeStyle;curved=1;rounded=0;orthogonalLoop=1;jettySize=auto;html=1;exitX=0.5;exitY=1;exitDx=0;exitDy=0;strokeWidth=3;fontSize=23;fillColor=#6d8764;strokeColor=#3A5431;" parent="1" source="b1TLpH0DYaXF8-X6dO7h-87" target="b1TLpH0DYaXF8-X6dO7h-94" edge="1">
          <mxGeometry relative="1" as="geometry" />
        </mxCell>
        <mxCell id="sFF2S7-PHeseh_3p-4S--2" style="edgeStyle=orthogonalEdgeStyle;orthogonalLoop=1;jettySize=auto;html=1;exitX=0.25;exitY=1;exitDx=0;exitDy=0;entryX=0.5;entryY=0;entryDx=0;entryDy=0;curved=1;strokeWidth=3;fillColor=#6d8764;strokeColor=#3A5431;" parent="1" source="b1TLpH0DYaXF8-X6dO7h-87" target="b1TLpH0DYaXF8-X6dO7h-92" edge="1">
          <mxGeometry relative="1" as="geometry" />
        </mxCell>
        <mxCell id="b1TLpH0DYaXF8-X6dO7h-87" value="&lt;b&gt;Manipulate&lt;/b&gt;" style="text;html=1;strokeColor=none;fillColor=none;align=center;verticalAlign=middle;whiteSpace=wrap;rounded=0;fontSize=23;" parent="1" vertex="1">
          <mxGeometry x="220" y="420" width="130" height="41" as="geometry" />
        </mxCell>
        <mxCell id="b1TLpH0DYaXF8-X6dO7h-107" style="edgeStyle=orthogonalEdgeStyle;curved=1;rounded=0;orthogonalLoop=1;jettySize=auto;html=1;exitX=0.5;exitY=1;exitDx=0;exitDy=0;entryX=0.5;entryY=0;entryDx=0;entryDy=0;strokeWidth=3;fontSize=23;fillColor=#6d8764;strokeColor=#3A5431;" parent="1" source="b1TLpH0DYaXF8-X6dO7h-88" target="b1TLpH0DYaXF8-X6dO7h-75" edge="1">
          <mxGeometry relative="1" as="geometry">
            <Array as="points">
              <mxPoint x="818.75" y="686" />
              <mxPoint x="818.75" y="698" />
              <mxPoint x="810.75" y="698" />
            </Array>
          </mxGeometry>
        </mxCell>
        <mxCell id="b1TLpH0DYaXF8-X6dO7h-88" value="&lt;div align=&quot;center&quot;&gt;Summarize metabolic content&lt;br&gt;&lt;/div&gt;" style="text;whiteSpace=wrap;html=1;fontSize=16;align=center;" parent="1" vertex="1">
          <mxGeometry x="764.75" y="616" width="110" height="70" as="geometry" />
        </mxCell>
        <mxCell id="b1TLpH0DYaXF8-X6dO7h-106" style="edgeStyle=orthogonalEdgeStyle;curved=1;rounded=0;orthogonalLoop=1;jettySize=auto;html=1;exitX=0.5;exitY=1;exitDx=0;exitDy=0;strokeWidth=3;fontSize=23;fillColor=#6d8764;strokeColor=#3A5431;" parent="1" source="b1TLpH0DYaXF8-X6dO7h-92" target="b1TLpH0DYaXF8-X6dO7h-77" edge="1">
          <mxGeometry relative="1" as="geometry" />
        </mxCell>
        <mxCell id="b1TLpH0DYaXF8-X6dO7h-92" value="&lt;div align=&quot;center&quot;&gt;Extract around genes of interest&lt;/div&gt;" style="text;whiteSpace=wrap;html=1;fontSize=16;align=center;" parent="1" vertex="1">
          <mxGeometry x="100" y="585" width="120" height="60" as="geometry" />
        </mxCell>
        <mxCell id="b1TLpH0DYaXF8-X6dO7h-109" style="edgeStyle=orthogonalEdgeStyle;curved=1;rounded=0;orthogonalLoop=1;jettySize=auto;html=1;strokeWidth=3;fontSize=23;fillColor=#6d8764;strokeColor=#3A5431;" parent="1" source="b1TLpH0DYaXF8-X6dO7h-93" target="b1TLpH0DYaXF8-X6dO7h-76" edge="1">
          <mxGeometry relative="1" as="geometry" />
        </mxCell>
        <mxCell id="b1TLpH0DYaXF8-X6dO7h-93" value="&lt;div align=&quot;center&quot;&gt;Extract genes of interest&lt;/div&gt;" style="text;whiteSpace=wrap;html=1;fontSize=16;align=center;" parent="1" vertex="1">
          <mxGeometry x="310" y="510" width="120" height="47" as="geometry" />
        </mxCell>
        <mxCell id="b1TLpH0DYaXF8-X6dO7h-102" style="edgeStyle=orthogonalEdgeStyle;curved=1;rounded=0;orthogonalLoop=1;jettySize=auto;html=1;strokeWidth=3;fontSize=23;fillColor=#6d8764;strokeColor=#3A5431;" parent="1" source="b1TLpH0DYaXF8-X6dO7h-94" target="b1TLpH0DYaXF8-X6dO7h-78" edge="1">
          <mxGeometry relative="1" as="geometry" />
        </mxCell>
        <mxCell id="b1TLpH0DYaXF8-X6dO7h-94" value="&lt;div align=&quot;center&quot;&gt;Merge multiple annotations&lt;/div&gt;" style="text;whiteSpace=wrap;html=1;fontSize=16;align=center;" parent="1" vertex="1">
          <mxGeometry x="225" y="578" width="120" height="47" as="geometry" />
        </mxCell>
      </root>
    </mxGraphModel>
  </diagram>
  <diagram id="Fb26pAfEgdmVf6KJOUbw" name="Page-2">
    <mxGraphModel dx="1606" dy="1073" grid="1" gridSize="10" guides="1" tooltips="1" connect="1" arrows="1" fold="1" page="1" pageScale="1" pageWidth="850" pageHeight="1100" math="0" shadow="0">
      <root>
        <mxCell id="0" />
        <mxCell id="1" parent="0" />
      </root>
    </mxGraphModel>
  </diagram>
</mxfile>
